<?xml version="1.0" encoding="utf-8"?>
<!-- Generator: Adobe Illustrator 28.3.0, SVG Export Plug-In . SVG Version: 6.00 Build 0)  -->
<svg version="1.1" id="Layer_1" xmlns="http://www.w3.org/2000/svg" xmlns:xlink="http://www.w3.org/1999/xlink" x="0px" y="0px"
	 viewBox="0 0 525.33 120" style="enable-background:new 0 0 525.33 120;" xml:space="preserve">
<g>
	<g>
		<path d="M45.85,116c-25.52,0-41.01-14.01-42.33-35.11h16.52c0.74,13.42,9.29,22.13,25.52,22.13c13.42,0,23.45-6.34,23.45-17.26
			c0-8.85-5.75-13.28-18-15.93l-15.34-2.95C20.77,63.93,7.2,56.41,7.2,38.41c0-17.85,15.64-31.27,37.61-31.27
			s38.65,13.42,39.97,34.52H68.27c-0.88-12.69-10.03-21.54-23.31-21.54c-13.72,0-21.24,8.11-21.24,17.26
			c0,10.03,8.7,13.57,18.59,15.64l15.64,3.1c18.14,3.69,28.32,11.65,28.32,27.44C86.26,101.99,71.51,116,45.85,116z"/>
		<path d="M157.96,88.27h-45.73l-9.74,26.26H86.12L126.68,8.62h17.85l40.27,105.91h-17.26L157.96,88.27z M117.1,75.14h35.99
			l-17.85-48.82L117.1,75.14z"/>
		<path d="M192.03,114.53V8.62h39.53c24.34,0,38.94,11.95,38.94,33.04c0,15.19-9.59,26.85-25.67,30.68l28.76,42.19h-19.47
			l-26.4-39.83h-19.47v39.83H192.03z M208.26,61.13h22.27c15.05,0,23.6-6.64,23.6-19.47c0-12.69-8.55-19.47-23.6-19.47h-22.27V61.13
			z"/>
		<path d="M348.98,114.53h-67.12V8.62h66.08v14.16h-49.86v30.09h45.43v14.16h-45.43v33.34h50.89V114.53z"/>
		<path d="M375.69,31.77v82.75h-15.04V8.62h17.7l54.43,80.54V8.62h15.04v105.91h-16.37L375.69,31.77z"/>
	</g>
	<g>
		<path d="M470.24,33.28c0-13.68,10.77-24.67,25.09-24.67c14.39,0,25.16,10.99,25.16,24.67c0,13.61-10.77,24.59-25.16,24.59
			C481.01,57.87,470.24,46.89,470.24,33.28z M515.88,33.28c0-11.48-8.43-20.7-20.55-20.7c-12.05,0-20.48,9.21-20.48,20.7
			c0,11.41,8.43,20.63,20.48,20.63C507.45,53.91,515.88,44.69,515.88,33.28z M494.83,36.68h-3.9v9.07h-4.68V20.81h9.64
			c5.95,0,9.57,2.83,9.57,7.94c0,3.69-2.41,6.31-5.81,7.3l6.66,9.71h-5.6L494.83,36.68z M490.93,24.63v8.22h4.68
			c3.47,0,5.24-1.49,5.24-4.11c0-2.55-1.77-4.11-5.24-4.11H490.93z"/>
	</g>
</g>
</svg>
